<?xml version="1.0" standalone="no"?>
<!DOCTYPE svg PUBLIC "-//W3C//DTD SVG 20010904//EN"
 "http://www.w3.org/TR/2001/REC-SVG-20010904/DTD/svg10.dtd">
<svg version="1.0" xmlns="http://www.w3.org/2000/svg"
 width="236.000000pt" height="290.000000pt" viewBox="0 0 236.000000 290.000000"
 preserveAspectRatio="xMidYMid meet">

<g transform="translate(0.000000,290.000000) scale(0.100000,-0.100000)"
fill="#000000" stroke="none">
<path d="M1232 2867 c-23 -25 -29 -61 -12 -72 6 -4 10 -32 9 -63 -1 -55 -3
-59 -57 -114 -31 -32 -61 -58 -67 -58 -6 0 -24 -13 -40 -30 -23 -24 -25 -30
-11 -30 10 0 14 -5 10 -11 -10 -17 -6 -487 5 -508 6 -10 15 -39 20 -63 6 -25
13 -53 17 -62 13 -34 -32 0 -50 37 -10 22 -27 39 -48 46 -18 7 -46 18 -63 25
-16 7 -55 21 -85 31 -100 33 -210 176 -210 274 0 38 7 52 55 111 30 37 55 72
55 77 0 5 18 24 39 41 39 32 81 102 81 138 0 10 -11 33 -24 49 l-25 30 -26
-26 c-27 -26 -27 -27 -10 -53 32 -49 28 -73 -22 -119 -24 -23 -55 -63 -68 -88
-13 -25 -31 -51 -40 -59 -15 -13 -16 -7 -13 73 2 48 0 87 -3 87 -3 0 -18 -13
-33 -29 -28 -29 -28 -30 -29 -178 l-1 -148 32 -58 c17 -31 32 -59 32 -62 0 -3
-33 -5 -72 -5 l-73 0 -1 67 c-2 99 -26 190 -54 208 -6 4 -10 106 -10 261 0
140 -4 254 -8 254 -5 0 -19 -11 -32 -24 -22 -25 -23 -28 -23 -274 0 -247 1
-249 25 -288 25 -38 34 -73 43 -161 l5 -43 -35 0 c-18 0 -45 4 -59 10 -40 15
-113 87 -120 118 -3 15 -10 34 -15 42 -9 13 -14 11 -36 -11 -25 -25 -26 -27
-13 -68 14 -45 90 -125 136 -142 13 -5 76 -9 139 -9 96 0 120 -3 135 -17 12
-10 46 -20 86 -25 120 -14 170 -24 189 -38 28 -21 162 -161 192 -199 l26 -35
-25 8 c-14 5 -45 11 -70 13 -25 3 -49 9 -54 14 -28 26 -286 4 -484 -41 -53
-12 -92 -13 -92 -1 0 5 -14 26 -30 47 -17 22 -51 69 -75 106 -45 67 -45 67
-45 158 0 49 -4 90 -8 90 -5 0 -19 -11 -32 -25 -21 -22 -23 -33 -22 -115 2
-90 10 -113 65 -185 4 -5 18 -27 32 -47 l24 -38 -67 0 c-63 0 -71 -2 -97 -30
l-29 -30 147 0 c81 0 166 4 189 9 209 46 447 67 474 42 5 -5 30 -12 57 -15
127 -16 137 -18 137 -32 0 -9 -11 -14 -32 -14 -18 0 -51 -5 -73 -11 -22 -6
-69 -15 -105 -19 -107 -14 -127 -21 -156 -51 l-28 -29 32 0 c17 0 34 5 37 10
3 6 28 10 55 10 27 0 61 5 77 11 15 6 83 13 149 16 120 4 122 3 129 -19 4 -13
9 -27 10 -33 2 -5 8 -32 13 -59 5 -26 19 -61 30 -76 25 -34 36 -144 23 -235
-7 -48 -21 -78 -70 -155 -34 -52 -69 -111 -79 -130 -9 -19 -34 -44 -57 -57
-21 -12 -74 -54 -116 -92 -50 -46 -86 -71 -101 -71 -16 0 -44 -20 -82 -59 -48
-49 -72 -64 -131 -85 -40 -14 -84 -26 -97 -26 -14 0 -37 -13 -53 -30 l-29 -30
35 0 c66 0 183 53 251 114 35 31 71 56 80 56 9 0 43 24 75 53 86 78 103 89 73
49 -14 -18 -51 -62 -82 -97 -52 -57 -64 -80 -59 -108 1 -5 -5 -20 -13 -35 -30
-56 -39 -122 -16 -122 19 0 48 52 55 97 4 27 13 55 20 63 7 8 15 31 19 51 4
22 20 49 46 74 21 21 54 59 71 84 39 54 136 147 146 138 3 -4 -5 -24 -19 -44
-14 -21 -31 -56 -38 -78 -14 -44 -25 -72 -39 -95 -16 -28 -40 -125 -45 -181
-5 -67 -32 -132 -75 -182 -26 -29 -43 -38 -91 -48 -46 -9 -66 -19 -96 -50 -21
-22 -33 -39 -27 -39 7 0 14 4 17 9 3 5 36 14 72 21 57 11 75 20 130 67 35 30
64 60 64 66 0 7 16 43 35 81 27 54 35 82 35 125 1 55 26 147 48 173 6 8 15 33
21 57 5 23 21 59 35 80 14 20 26 42 26 48 0 7 5 15 11 19 9 5 10 -7 4 -47 -9
-64 -9 -59 -1 -128 5 -43 13 -62 43 -97 21 -23 58 -70 83 -103 25 -34 57 -65
73 -70 16 -6 58 -31 93 -56 107 -74 117 -78 148 -54 14 11 26 24 26 28 0 4
-18 17 -40 30 -22 12 -40 25 -40 28 0 3 31 2 69 -2 69 -7 69 -7 108 28 30 28
51 37 91 43 29 4 55 11 58 15 3 5 15 9 28 9 12 0 35 13 51 30 l29 30 -32 0
c-17 0 -33 -4 -36 -9 -3 -5 -32 -12 -63 -16 -32 -4 -66 -13 -77 -21 -28 -19
-253 -20 -293 0 -15 7 -50 24 -78 37 l-50 24 -3 113 c-2 87 1 121 13 144 20
41 23 476 3 496 -9 9 -13 52 -13 140 l0 127 51 10 c28 6 57 15 65 21 23 18
124 35 253 44 80 6 133 14 156 26 116 56 252 178 263 233 4 17 22 48 42 69 19
22 35 47 35 57 0 9 13 34 28 54 37 49 57 89 48 98 -10 9 -76 -65 -76 -84 0 -7
-13 -32 -30 -55 -16 -22 -30 -47 -30 -54 0 -8 -15 -31 -33 -51 -18 -21 -40
-55 -49 -75 -18 -39 -121 -128 -149 -128 -9 0 -30 -7 -45 -15 -19 -10 -58 -15
-112 -15 -91 0 -220 -22 -267 -45 -16 -8 -48 -19 -70 -24 -22 -5 -62 -17 -88
-27 l-49 -19 -19 24 c-11 14 -19 39 -19 62 0 34 4 40 33 52 17 8 46 26 63 40
18 15 36 27 42 27 5 0 15 7 22 15 7 8 22 15 34 15 12 0 26 4 32 9 18 16 104
31 182 31 64 0 82 4 95 18 36 39 23 45 -80 39 -87 -4 -170 -23 -213 -48 -8 -5
-25 -13 -37 -18 -11 -6 -24 -15 -28 -20 -17 -28 -21 -6 -8 42 35 126 85 190
155 201 26 4 50 11 53 15 2 5 29 12 60 16 30 3 57 10 60 15 3 4 24 11 48 15
23 4 47 11 52 15 6 4 33 11 60 15 46 6 60 15 168 112 64 57 117 109 117 115 0
5 12 25 26 44 21 27 23 34 10 34 -8 0 -34 -24 -56 -52 -61 -80 -151 -168 -187
-184 -18 -8 -50 -14 -71 -14 -21 0 -42 -4 -47 -9 -11 -10 -141 -51 -162 -51
-21 0 -134 -38 -166 -56 l-29 -16 15 28 c8 16 27 40 41 53 14 14 26 29 26 36
0 6 32 42 71 80 39 39 74 79 79 91 8 21 110 114 124 114 39 0 295 242 330 311
17 34 21 79 8 79 -14 0 -52 -45 -52 -62 0 -45 -125 -199 -179 -219 -9 -4 -24
-16 -35 -27 -10 -12 -31 -24 -47 -27 -28 -6 -147 -124 -207 -204 -15 -20 -54
-63 -87 -97 -65 -66 -105 -115 -125 -154 -7 -14 -43 -54 -79 -90 -36 -36 -77
-80 -91 -99 l-25 -33 2 188 c2 104 6 253 9 332 6 129 8 142 24 142 11 0 21 4
24 9 3 5 23 12 43 15 21 4 52 13 68 20 17 8 43 20 60 27 16 8 62 44 101 82 56
52 73 76 79 105 4 20 11 43 17 50 6 6 6 12 1 12 -16 0 -70 -64 -76 -91 -8 -32
-73 -98 -106 -106 -15 -3 -33 -11 -41 -18 -8 -7 -34 -16 -57 -20 -24 -4 -45
-11 -49 -16 -3 -5 -23 -9 -45 -9 l-39 0 0 64 0 64 43 25 c41 25 98 77 83 77
-4 0 -21 -7 -37 -15 -16 -8 -42 -22 -59 -31 l-30 -15 0 55 c0 30 -4 58 -10 61
-5 3 -10 15 -10 26 0 25 -12 24 -38 -4z m-4 -267 c0 -39 -1 -40 -35 -40 l-34
0 32 40 c18 22 34 40 35 40 2 0 2 -18 2 -40z m-3 -202 c-2 -57 -5 -202 -6
-323 -1 -121 -4 -235 -7 -253 l-4 -33 -13 25 c-7 13 -18 44 -23 68 -6 24 -18
70 -28 103 -14 47 -18 108 -21 288 l-4 227 55 0 56 0 -5 -102z m-545 -386
c-25 -4 -35 2 -26 17 5 7 13 7 27 -2 20 -12 20 -12 -1 -15z m720 -96 c-18 -30
-34 -70 -37 -88 -3 -18 -10 -42 -15 -53 -12 -21 -48 -54 -60 -55 -14 0 -8 54
7 74 8 11 15 26 15 33 0 16 110 156 117 149 2 -2 -10 -29 -27 -60z m-190 -954
c0 -5 -7 -17 -15 -28 -14 -18 -14 -17 -4 9 12 27 19 34 19 19z"/>
</g>
</svg>
